<svg width="382" height="99.503" viewBox="0 0 382 99.503" xmlns="http://www.w3.org/2000/svg"><g id="svgGroup" stroke-linecap="round" fill-rule="evenodd" font-size="9pt" stroke="#000" stroke-width="0.25mm" fill="#000" style="stroke:#000;stroke-width:0.25mm;fill:#000"><path d="M 242.1 52.302 L 241.8 30.602 A 10.058 10.058 0 0 1 241.954 28.757 Q 242.531 25.683 245.27 25.512 A 5.302 5.302 0 0 1 245.6 25.502 Q 249.984 25.502 250.19 32.314 A 22.777 22.777 0 0 1 250.2 33.002 A 51.481 51.481 0 0 1 250.069 36.421 Q 249.804 40.339 249.007 46.161 A 323.398 323.398 0 0 1 248.1 52.302 Q 249.289 64.393 249.3 70.395 A 60.845 60.845 0 0 1 249.3 70.502 A 43.687 43.687 0 0 1 248.474 79.253 Q 247 86.459 242.9 91.552 A 20.842 20.842 0 0 1 228.734 99.267 A 30.278 30.278 0 0 1 224.9 99.502 Q 218.7 99.502 213.2 96.952 A 24.482 24.482 0 0 1 211.193 95.916 Q 207.92 94.012 207.714 92.108 A 2.377 2.377 0 0 1 207.7 91.852 A 4.119 4.119 0 0 1 207.803 90.89 Q 208.185 89.302 210 89.302 Q 210.973 89.302 215.305 91.053 A 123.915 123.915 0 0 1 215.55 91.152 Q 220.1 93.002 224.9 93.002 A 18.904 18.904 0 0 0 231.038 92.05 A 15.638 15.638 0 0 0 238.2 87.002 Q 243.1 81.002 243.1 71.502 A 75.204 75.204 0 0 0 242.809 64.805 A 69.426 69.426 0 0 0 242.8 64.702 A 34.971 34.971 0 0 1 238.403 70.818 Q 235.301 74.212 231.687 75.883 A 17.626 17.626 0 0 1 224.2 77.502 A 17.185 17.185 0 0 1 218.706 76.666 A 13.986 13.986 0 0 1 211.8 71.552 A 22.225 22.225 0 0 1 207.748 61.63 A 29.719 29.719 0 0 1 207.4 57.002 L 208 41.902 Q 208 37.902 207.2 34.452 Q 206.4 31.002 206.4 29.502 A 3.672 3.672 0 0 1 207.104 27.352 A 5.097 5.097 0 0 1 207.6 26.752 A 4.015 4.015 0 0 1 210.293 25.517 A 5.446 5.446 0 0 1 210.7 25.502 A 3.789 3.789 0 0 1 214.323 27.885 Q 215.154 29.618 215.278 32.612 A 26.328 26.328 0 0 1 215.3 33.702 L 214.5 55.702 A 26.153 26.153 0 0 0 214.875 60.26 Q 215.542 64.03 217.4 66.752 Q 220.3 71.002 225.45 71.002 Q 229.635 71.002 233.588 67.206 A 24.247 24.247 0 0 0 235.4 65.252 Q 240.2 59.502 242.1 52.302 Z M 40.924 71.115 A 19.784 19.784 0 0 0 47 56.502 A 16.808 16.808 0 0 0 46.333 51.768 A 18.165 18.165 0 0 0 43.25 45.802 Q 39.5 40.902 34.15 37.552 Q 28.8 34.202 23.45 31.152 A 58.072 58.072 0 0 1 18.786 28.205 A 43.621 43.621 0 0 1 14.35 24.652 A 13.841 13.841 0 0 1 12.333 22.37 A 9.166 9.166 0 0 1 10.6 17.052 Q 10.6 12.902 14.6 9.952 A 17.277 17.277 0 0 1 16.558 8.696 A 13.151 13.151 0 0 1 22.95 7.002 A 36.309 36.309 0 0 1 25.616 7.094 Q 28.153 7.281 29.9 7.852 A 23.827 23.827 0 0 1 30.127 7.928 Q 31.702 8.46 32.758 9.069 A 6.909 6.909 0 0 1 33.75 9.752 A 17.019 17.019 0 0 0 33.829 9.818 A 18.297 18.297 0 0 0 36.5 11.652 A 7.254 7.254 0 0 0 37.391 12.082 A 5.662 5.662 0 0 0 39.5 12.502 A 4.457 4.457 0 0 0 40.13 12.459 A 3.241 3.241 0 0 0 41.95 11.602 A 2.932 2.932 0 0 0 42.783 10.141 A 4.331 4.331 0 0 0 42.9 9.102 A 4.224 4.224 0 0 0 42.547 7.417 Q 41.782 5.639 39.36 4.061 A 20.346 20.346 0 0 0 37.1 2.802 Q 31.3 0.002 23.1 0.002 Q 14.9 0.002 8.75 5.202 A 21.497 21.497 0 0 0 6.818 7.046 A 14.996 14.996 0 0 0 2.6 17.502 Q 2.6 22.902 6.35 27.402 A 33.357 33.357 0 0 0 7.437 28.642 A 35.755 35.755 0 0 0 15.45 35.102 Q 20.8 38.302 26.15 41.352 Q 31.5 44.402 35.25 48.252 A 15.502 15.502 0 0 1 37.307 50.838 A 10.529 10.529 0 0 1 39 56.502 Q 39 63.102 34.35 67.052 A 16.003 16.003 0 0 1 28.188 70.299 A 20.472 20.472 0 0 1 22.7 71.002 A 23.8 23.8 0 0 1 20.196 70.874 A 19.19 19.19 0 0 1 15.25 69.702 A 24.805 24.805 0 0 1 13.279 68.844 Q 12.38 68.402 11.656 67.934 A 9.862 9.862 0 0 1 10.25 66.852 Q 8.6 65.302 6.75 64.002 A 9.93 9.93 0 0 0 5.825 63.421 Q 5.245 63.103 4.702 62.925 A 4.185 4.185 0 0 0 3.4 62.702 A 4.279 4.279 0 0 0 3.124 62.711 A 3.169 3.169 0 0 0 0.95 63.702 Q 0 64.702 0 66.202 Q 0 69.249 4.395 72.327 A 30.354 30.354 0 0 0 7.2 74.052 Q 14.4 78.002 22.7 78.002 Q 33.4 78.002 40.2 71.802 A 24.519 24.519 0 0 0 40.924 71.115 Z M 98.5 33.702 L 97.7 55.702 A 26.153 26.153 0 0 0 98.075 60.26 Q 98.742 64.03 100.6 66.752 Q 103.5 71.002 108.65 71.002 Q 112.835 71.002 116.788 67.206 A 24.247 24.247 0 0 0 118.6 65.252 Q 123.4 59.502 125.3 52.302 L 125 30.602 A 10.058 10.058 0 0 1 125.154 28.757 Q 125.731 25.683 128.47 25.512 A 5.302 5.302 0 0 1 128.8 25.502 A 3.859 3.859 0 0 1 132.48 27.656 Q 133.334 29.275 133.395 32.109 A 20.593 20.593 0 0 1 133.4 32.552 Q 133.4 39.602 131.4 52.302 A 84.145 84.145 0 0 0 131.53 57.134 Q 131.662 59.419 131.928 61.37 A 35.172 35.172 0 0 0 132.5 64.552 A 27.7 27.7 0 0 0 132.964 66.311 Q 133.905 69.424 135.1 69.902 Q 135.7 70.202 136.55 70.302 Q 137.211 70.38 137.569 70.518 A 1.326 1.326 0 0 1 137.75 70.602 A 0.629 0.629 0 0 1 138.026 70.934 Q 138.071 71.051 138.089 71.199 A 1.716 1.716 0 0 1 138.1 71.402 A 7.208 7.208 0 0 1 137.828 73.431 A 5.615 5.615 0 0 1 136.45 75.802 A 5.513 5.513 0 0 1 132.456 77.501 A 7.237 7.237 0 0 1 132.3 77.502 A 4.999 4.999 0 0 1 127.65 74.45 Q 126.388 72.004 126.091 67.595 A 43.217 43.217 0 0 1 126 64.702 A 34.971 34.971 0 0 1 121.603 70.818 Q 118.501 74.212 114.887 75.883 A 17.626 17.626 0 0 1 107.4 77.502 A 17.185 17.185 0 0 1 101.906 76.666 A 13.986 13.986 0 0 1 95 71.552 A 22.225 22.225 0 0 1 90.948 61.63 A 29.719 29.719 0 0 1 90.6 57.002 L 91.2 41.902 Q 91.2 37.902 90.4 34.452 Q 89.6 31.002 89.6 29.502 A 3.672 3.672 0 0 1 90.304 27.352 A 5.097 5.097 0 0 1 90.8 26.752 A 4.015 4.015 0 0 1 93.493 25.517 A 5.446 5.446 0 0 1 93.9 25.502 A 3.789 3.789 0 0 1 97.523 27.885 Q 98.354 29.618 98.478 32.612 A 26.328 26.328 0 0 1 98.5 33.702 Z M 195.284 70.155 A 6.735 6.735 0 0 0 194.4 70.102 A 2.163 2.163 0 0 1 193.684 69.824 Q 191.67 68.604 190.9 62.702 A 74.09 74.09 0 0 1 190.612 60.113 Q 190.186 55.616 190.056 49.371 A 279.564 279.564 0 0 1 190 43.602 Q 190.5 37.002 191.3 28.852 A 1473.615 1473.615 0 0 0 191.464 27.169 Q 192.142 20.18 192.5 15.752 A 154.527 154.527 0 0 0 192.711 12.81 Q 192.797 11.414 192.844 10.17 A 73.862 73.862 0 0 0 192.9 7.402 A 14.101 14.101 0 0 0 192.806 5.72 Q 192.688 4.744 192.424 3.946 A 5.661 5.661 0 0 0 191.55 2.252 A 5.359 5.359 0 0 0 191.223 1.866 A 4.165 4.165 0 0 0 188.05 0.502 A 5.026 5.026 0 0 0 187.197 0.571 A 3.126 3.126 0 0 0 184.95 2.052 A 3.395 3.395 0 0 0 184.627 2.806 Q 184.145 4.348 184.034 7.806 A 70.097 70.097 0 0 0 184 10.052 Q 184 16.502 183.8 30.402 A 29.196 29.196 0 0 0 181.58 28.926 A 22.951 22.951 0 0 0 169.6 25.502 A 21.256 21.256 0 0 0 159.701 27.788 A 22.143 22.143 0 0 0 152.7 33.602 Q 146.1 41.702 146.1 52.602 A 30.293 30.293 0 0 0 146.149 54.321 A 32.444 32.444 0 0 0 148.1 63.602 A 22.68 22.68 0 0 0 149.703 67.072 A 24.794 24.794 0 0 0 154.8 73.302 Q 159.5 77.502 166 77.502 A 16.877 16.877 0 0 0 174.367 75.341 Q 177.573 73.55 180.347 70.276 A 36.639 36.639 0 0 0 184.5 64.102 Q 184.992 69.024 185.954 72.067 A 14.304 14.304 0 0 0 186.85 74.302 A 7.928 7.928 0 0 0 187.784 75.74 A 4.524 4.524 0 0 0 191.4 77.502 A 6.972 6.972 0 0 0 192.714 77.385 A 4.382 4.382 0 0 0 195.65 75.502 Q 196.246 74.619 196.579 73.756 A 5.958 5.958 0 0 0 197 71.602 Q 197 70.383 195.284 70.155 Z M 362.8 50.302 L 373 65.602 A 27.911 27.911 0 0 0 374.552 67.47 Q 376.286 69.368 377.85 70.202 Q 379.946 71.32 380.914 71.397 A 1.73 1.73 0 0 0 381.05 71.402 A 2.703 2.703 0 0 1 381.37 71.419 Q 381.693 71.458 381.85 71.584 A 0.387 0.387 0 0 1 382 71.902 A 7.202 7.202 0 0 1 381.615 74.294 A 6.376 6.376 0 0 1 380.55 76.202 A 6.951 6.951 0 0 1 379.738 77.062 Q 378.67 78.002 377.55 78.002 A 11.218 11.218 0 0 1 376.645 77.968 Q 375.72 77.893 375.101 77.653 A 6.173 6.173 0 0 1 375.1 77.652 Q 374.42 77.388 373.683 76.752 A 8.95 8.95 0 0 1 373.2 76.302 Q 372.2 75.302 371.3 74.252 Q 370.611 73.448 369.6 72.029 A 76.508 76.508 0 0 1 368.95 71.102 Q 367.5 69.002 366.25 67.152 Q 365 65.302 362.8 62.002 Q 360.6 58.702 358.7 55.902 A 907.406 907.406 0 0 0 350.693 67.735 A 991.635 991.635 0 0 0 350.15 68.552 A 463.631 463.631 0 0 1 348.635 70.82 Q 345.938 74.83 344.965 76.044 A 7.888 7.888 0 0 1 344.75 76.302 A 4.301 4.301 0 0 1 344.044 76.957 Q 343.292 77.502 342.45 77.502 A 3.21 3.21 0 0 1 340.585 76.899 A 4.324 4.324 0 0 1 340.15 76.552 Q 339.759 76.199 339.514 75.811 A 2.588 2.588 0 0 1 339.1 74.402 A 7.937 7.937 0 0 1 339.142 73.558 Q 339.186 73.148 339.276 72.799 A 3.883 3.883 0 0 1 339.4 72.402 A 4.228 4.228 0 0 1 339.606 71.949 Q 339.991 71.207 340.861 70.007 A 35.935 35.935 0 0 1 340.9 69.952 Q 342.1 68.302 343.6 66.302 Q 347.8 60.902 355 50.402 L 346.4 37.602 A 30.236 30.236 0 0 0 344.885 35.795 Q 343.603 34.388 342.4 33.502 A 17.096 17.096 0 0 0 341.533 32.9 Q 340.71 32.37 340.102 32.15 A 2.538 2.538 0 0 0 339.5 32.002 Q 337.3 31.802 337.3 30.902 A 7.657 7.657 0 0 1 337.559 28.868 A 5.998 5.998 0 0 1 338.65 26.702 A 4.398 4.398 0 0 1 341.852 25.026 A 6.288 6.288 0 0 1 342.4 25.002 Q 344.401 25.002 346.262 26.809 A 11.054 11.054 0 0 1 347 27.602 Q 349.2 30.202 352.8 35.652 A 23461.488 23461.488 0 0 0 353.65 36.939 Q 356.45 41.177 356.8 41.702 Q 357.158 42.239 357.716 43.096 A 317.928 317.928 0 0 1 357.85 43.302 Q 358.5 44.302 359.1 45.202 Q 368.871 30.458 370.346 28.273 A 16.131 16.131 0 0 1 370.6 27.902 A 11.327 11.327 0 0 1 371.37 26.923 Q 372.213 25.976 372.991 25.66 A 2.01 2.01 0 0 1 373.75 25.502 A 3.244 3.244 0 0 1 376.133 26.484 A 3.945 3.945 0 0 1 376.2 26.552 A 3.972 3.972 0 0 1 376.838 27.421 A 3.004 3.004 0 0 1 377.2 28.852 A 3.495 3.495 0 0 1 377.073 29.742 Q 376.848 30.589 376.23 31.666 A 14.746 14.746 0 0 1 376 32.052 A 31.73 31.73 0 0 1 375.322 33.097 Q 373.838 35.304 370.4 39.952 A 2172.536 2172.536 0 0 0 367.269 44.197 Q 366.035 45.875 364.917 47.401 A 1185.308 1185.308 0 0 0 362.8 50.302 Z M 274.5 18.902 L 274.5 26.502 L 284.2 26.302 A 5.306 5.306 0 0 1 285.494 26.453 A 4.034 4.034 0 0 1 286.9 27.102 A 2.593 2.593 0 0 1 287.948 28.841 A 3.974 3.974 0 0 1 288 29.502 Q 288 32.194 284.941 32.471 A 8.24 8.24 0 0 1 284.2 32.502 L 274.5 32.302 L 274.5 39.002 A 1054.208 1054.208 0 0 0 274.542 48.733 Q 274.613 56.327 274.8 62.202 A 2796.483 2796.483 0 0 1 274.902 65.451 Q 275.065 70.737 275.094 72.533 A 40.37 40.37 0 0 1 275.1 73.152 A 4.627 4.627 0 0 1 274.459 75.483 A 6.013 6.013 0 0 1 274.05 76.102 A 3.326 3.326 0 0 1 271.638 77.48 A 4.295 4.295 0 0 1 271.2 77.502 A 3.714 3.714 0 0 1 269.815 77.253 Q 268.957 76.912 268.35 76.102 A 5.493 5.493 0 0 1 267.597 74.757 A 4.488 4.488 0 0 1 267.3 73.152 A 87.019 87.019 0 0 1 267.305 72.323 Q 267.318 70.984 267.367 68.518 A 1107.359 1107.359 0 0 1 267.4 66.902 Q 267.9 52.802 267.9 39.002 L 267.9 32.302 L 262.8 32.502 A 7.063 7.063 0 0 1 261.413 32.378 Q 259 31.893 259 29.502 A 3.693 3.693 0 0 1 259.119 28.538 A 2.542 2.542 0 0 1 260.1 27.102 A 4.124 4.124 0 0 1 261.849 26.38 A 5.571 5.571 0 0 1 262.8 26.302 L 267.8 26.502 L 267.8 18.002 A 37.5 37.5 0 0 1 268.073 13.305 Q 268.718 8.218 270.884 5.3 A 10.098 10.098 0 0 1 271.45 4.602 A 13.557 13.557 0 0 1 274.349 2.104 A 10.241 10.241 0 0 1 279.9 0.502 A 20.593 20.593 0 0 1 283.268 0.762 Q 285.881 1.196 287.85 2.352 Q 290.45 3.879 290.904 5.576 A 2.797 2.797 0 0 1 291 6.302 Q 291 9.602 288.2 9.602 A 3.81 3.81 0 0 1 287.31 9.485 Q 286.436 9.274 285.31 8.682 A 16.401 16.401 0 0 1 284.8 8.402 A 9.892 9.892 0 0 0 282.982 7.582 A 7.286 7.286 0 0 0 280.7 7.202 Q 275.027 7.202 274.545 16.999 A 38.787 38.787 0 0 0 274.5 18.902 Z M 68 32.602 L 67.8 56.302 A 174.103 174.103 0 0 0 67.836 59.982 Q 67.964 66.015 68.55 68.202 A 4.061 4.061 0 0 0 69.246 69.664 Q 70.288 71.002 72.5 71.002 A 5.483 5.483 0 0 0 73.662 70.867 Q 74.764 70.627 76.129 69.963 A 17.299 17.299 0 0 0 76.15 69.952 A 30.036 30.036 0 0 1 76.905 69.595 Q 78.091 69.057 78.699 68.937 A 1.587 1.587 0 0 1 79 68.902 A 3.11 3.11 0 0 1 79.818 69 Q 81.1 69.351 81.1 70.952 Q 81.1 72.637 78.602 74.456 A 17.401 17.401 0 0 1 77.4 75.252 A 16.762 16.762 0 0 1 74.182 76.79 A 12.417 12.417 0 0 1 70.1 77.502 A 8.155 8.155 0 0 1 65.666 76.352 Q 62.43 74.313 61.649 68.664 A 29.048 29.048 0 0 1 61.4 64.702 L 61.3 32.602 Q 58.365 32.869 57.012 32.899 A 14.37 14.37 0 0 1 56.7 32.902 A 11.345 11.345 0 0 1 55.001 32.786 Q 52.754 32.444 52.037 31.092 A 3.134 3.134 0 0 1 51.7 29.602 A 2.774 2.774 0 0 1 53.238 26.957 Q 54.473 26.302 56.7 26.302 Q 57.1 26.302 61.1 26.502 L 60.9 15.302 Q 60.9 10.302 64.7 10.302 A 4.046 4.046 0 0 1 66.44 10.65 Q 68.5 11.621 68.5 15.302 L 68.2 26.602 L 76.3 26.202 A 10.882 10.882 0 0 1 78.063 26.332 Q 81.3 26.866 81.3 29.602 A 2.676 2.676 0 0 1 79.783 32.156 Q 78.646 32.75 76.656 32.798 A 14.794 14.794 0 0 1 76.3 32.802 Q 75.4 32.802 68 32.602 Z M 304.7 5.502 L 304.2 39.002 L 304.7 72.502 Q 304.7 77.502 300.9 77.502 A 4.046 4.046 0 0 1 299.16 77.155 Q 297.1 76.184 297.1 72.502 L 297.6 39.002 L 297.1 5.502 Q 297.1 0.502 300.9 0.502 A 4.046 4.046 0 0 1 302.64 0.85 Q 304.7 1.821 304.7 5.502 Z M 327.1 30.502 L 326.6 51.502 L 327.1 72.502 Q 327.1 77.502 323.3 77.502 A 4.046 4.046 0 0 1 321.56 77.155 Q 319.5 76.184 319.5 72.502 L 320 51.502 L 319.5 30.502 Q 319.5 25.502 323.3 25.502 A 4.046 4.046 0 0 1 325.04 25.85 Q 327.1 26.821 327.1 30.502 Z M 183.8 53.702 L 183.8 37.802 Q 177.8 32.002 169.6 32.002 A 13.176 13.176 0 0 0 160.954 35.252 A 19.84 19.84 0 0 0 158.35 37.902 Q 153.5 43.802 153.5 51.752 A 30.221 30.221 0 0 0 154.17 58.268 A 22.565 22.565 0 0 0 157 65.352 A 13.588 13.588 0 0 0 159.634 68.511 A 10.153 10.153 0 0 0 166.5 71.002 A 12.972 12.972 0 0 0 175.394 67.327 Q 180.135 63.028 183.8 53.702 Z M 325.005 4.134 A 5.158 5.158 0 0 0 323.8 4.002 A 4.283 4.283 0 0 0 321.522 4.627 A 5.144 5.144 0 0 0 320.25 5.752 Q 318.8 7.502 318.8 9.802 Q 318.8 10.88 319.031 11.761 A 4.966 4.966 0 0 0 319.85 13.502 A 3.34 3.34 0 0 0 321.735 14.752 A 4.991 4.991 0 0 0 323 14.902 A 3.776 3.776 0 0 0 325.531 13.955 A 5.606 5.606 0 0 0 326.5 12.852 Q 327.9 10.802 327.9 8.752 A 7.004 7.004 0 0 0 327.76 7.313 A 4.958 4.958 0 0 0 326.9 5.352 A 3.203 3.203 0 0 0 325.005 4.134 Z" vector-effect="non-scaling-stroke"/></g></svg>